<?xml version="1.0" encoding="UTF-8"?>
<!DOCTYPE svg PUBLIC "-//W3C//DTD SVG 1.1//EN" "http://www.w3.org/Graphics/SVG/1.1/DTD/svg11.dtd">
<svg xmlns="http://www.w3.org/2000/svg" version="1.1" width="694px" height="218px" style="shape-rendering:geometricPrecision; text-rendering:geometricPrecision; image-rendering:optimizeQuality; fill-rule:evenodd; clip-rule:evenodd" xmlns:xlink="http://www.w3.org/1999/xlink">
<g><path style="opacity:1" fill="#252524" d="M 663.5,67.5 C 664.739,68.212 665.239,69.212 665,70.5C 659.212,69.0138 653.712,66.8472 648.5,64C 642.167,63.7658 635.834,63.9325 629.5,64.5C 629.665,60.8183 629.499,57.1516 629,53.5C 625.504,46.5056 620.337,44.839 613.5,48.5C 607.963,56.2375 603.463,64.5708 600,73.5C 599.243,87.6136 597.577,101.614 595,115.5C 592.736,122.185 591.569,121.852 591.5,114.5C 592.184,108.435 593.184,102.435 594.5,96.5C 596.023,91.0975 597.023,85.5975 597.5,80C 598.211,74.4216 596.211,70.0883 591.5,67C 588.623,66.0438 585.956,64.7105 583.5,63C 580.774,62.8184 578.107,62.3184 575.5,61.5C 573.833,57.8333 571.167,55.1667 567.5,53.5C 564.202,42.5927 557.702,39.926 548,45.5C 544.235,54.0841 542.402,63.0841 542.5,72.5C 542.108,74.1789 541.608,75.8455 541,77.5C 539.72,68.8858 534.886,63.3858 526.5,61C 518.69,57.6876 512.523,59.5209 508,66.5C 507.536,65.9056 507.369,65.2389 507.5,64.5C 509.873,60.0659 513.707,57.7325 519,57.5C 525.654,58.2737 531.821,60.4404 537.5,64C 538.701,64.9025 539.535,66.0692 540,67.5C 540.962,59.0282 543.296,51.0282 547,43.5C 556.731,37.9489 563.898,40.2822 568.5,50.5C 571.399,52.7774 574.066,55.2774 576.5,58C 579.101,58.9203 581.768,59.587 584.5,60C 589.44,63.279 594.606,66.1123 600,68.5C 603.333,60.3394 607.833,52.8394 613.5,46C 619.522,43.3649 624.689,44.5316 629,49.5C 630.607,53.8127 631.94,58.1461 633,62.5C 636.072,61.5697 639.239,60.903 642.5,60.5C 649.619,62.5641 656.619,64.8974 663.5,67.5 Z"/></g>
<g><path style="opacity:1" fill="#080304" d="M 88.5,74.5 C 74.5439,77.2604 60.8772,81.2604 47.5,86.5C 46.5731,80.1889 46.4065,73.8556 47,67.5C 47.8834,64.8976 49.3834,62.7309 51.5,61C 51.1667,60.8333 50.8333,60.6667 50.5,60.5C 47.9272,62.6416 46.0938,65.3082 45,68.5C 44.934,74.8368 44.934,81.1701 45,87.5C 38.5676,89.3629 32.4009,91.6962 26.5,94.5C 23.5995,87.5104 24.0995,80.5104 28,73.5C 41.2767,57.0564 57.7767,52.5564 77.5,60C 83.2645,63.2617 86.9312,68.0951 88.5,74.5 Z"/></g>
<g><path style="opacity:1" fill="#070606" d="M 310.5,70.5 C 311.091,71.1515 311.757,71.8182 312.5,72.5C 312.291,73.086 311.957,73.586 311.5,74C 308.796,75.3564 306.129,75.8564 303.5,75.5C 297.522,73.6827 291.855,74.3493 286.5,77.5C 284.809,75.7438 282.809,75.2438 280.5,76C 265.151,92.5445 259.318,112.044 263,134.5C 264.565,144.536 269.732,151.87 278.5,156.5C 279.948,158.999 281.115,161.665 282,164.5C 283.188,163.437 283.688,162.103 283.5,160.5C 284.5,160.5 285.5,160.5 286.5,160.5C 286.221,172.176 286.055,183.843 286,195.5C 286.414,195.957 286.914,196.291 287.5,196.5C 288.333,184.848 288.833,173.181 289,161.5C 291.209,161.011 293.042,160.011 294.5,158.5C 306.309,153.52 314.142,144.853 318,132.5C 322.045,118.965 322.545,105.298 319.5,91.5C 320.23,90.2876 321.23,89.2876 322.5,88.5C 326.783,87.5078 331.116,87.1744 335.5,87.5C 333.337,108.114 331.17,128.781 329,149.5C 327.485,156.321 328.818,162.321 333,167.5C 334.017,165.624 334.851,163.624 335.5,161.5C 336.719,162.263 337.719,163.263 338.5,164.5C 339.672,164.081 340.672,163.415 341.5,162.5C 343.601,154.3 345.101,145.967 346,137.5C 346.308,136.692 346.808,136.025 347.5,135.5C 356.259,141.756 363.426,149.423 369,158.5C 369.171,165.679 369.671,172.679 370.5,179.5C 373.018,181.357 373.018,183.19 370.5,185C 368.527,185.495 366.527,185.662 364.5,185.5C 363.878,184.373 363.045,183.373 362,182.5C 361.667,175.5 361.333,168.5 361,161.5C 359.093,157.59 356.427,154.256 353,151.5C 352.629,169.216 343.796,176.716 326.5,174C 319.858,167.134 317.691,158.967 320,149.5C 313.798,157.21 306.298,163.21 297.5,167.5C 296.3,175.496 296.3,183.496 297.5,191.5C 297.087,201.427 292.087,205.593 282.5,204C 278.249,201.056 276.249,196.889 276.5,191.5C 277.548,184.856 277.714,178.19 277,171.5C 274.894,169.623 273.561,167.29 273,164.5C 268.018,160.685 263.518,156.352 259.5,151.5C 256.008,155.825 252.008,159.658 247.5,163C 247.728,163.399 248.062,163.565 248.5,163.5C 247.71,164.794 246.71,165.961 245.5,167C 241.748,169.293 237.914,171.46 234,173.5C 233.007,176.408 232.507,179.408 232.5,182.5C 233.4,189.489 233.566,196.489 233,203.5C 232.004,205.66 230.504,207.327 228.5,208.5C 225.071,208.454 221.404,208.288 217.5,208C 213.34,205.389 211.34,201.556 211.5,196.5C 212.545,187.851 212.711,179.184 212,170.5C 206.957,161.885 201.457,153.551 195.5,145.5C 191.354,148.535 186.854,149.201 182,147.5C 181.669,155.516 181.669,163.516 182,171.5C 178.608,177.467 173.774,178.967 167.5,176C 166.789,174.745 165.956,173.579 165,172.5C 164.832,164.147 164.332,155.813 163.5,147.5C 162.522,147.023 161.689,146.357 161,145.5C 160.601,145.728 160.435,146.062 160.5,146.5C 158.413,145.415 157.08,143.749 156.5,141.5C 160.122,143.885 161.122,142.885 159.5,138.5C 154.297,137.217 149.963,134.384 146.5,130C 146.728,129.601 147.062,129.435 147.5,129.5C 151.264,130.881 154.931,132.547 158.5,134.5C 160.217,133.332 160.884,131.665 160.5,129.5C 162.722,129.178 164.556,129.845 166,131.5C 166.499,135.152 166.665,138.818 166.5,142.5C 167.5,142.5 168.5,142.5 169.5,142.5C 169.187,139.753 169.52,137.086 170.5,134.5C 171.192,135.025 171.692,135.692 172,136.5C 172.69,147.852 172.523,159.185 171.5,170.5C 172.833,170.5 174.167,170.5 175.5,170.5C 174.488,159.852 174.321,149.186 175,138.5C 175.739,137.426 176.739,136.759 178,136.5C 189.13,143.253 194.464,139.92 194,126.5C 199.933,118.357 199.1,110.857 191.5,104C 192.382,100.559 192.716,97.0592 192.5,93.5C 190.473,93.3379 188.473,93.5045 186.5,94C 181.533,97.966 176.866,102.299 172.5,107C 169.167,109 165.833,111 162.5,113C 161.365,113.749 160.365,113.583 159.5,112.5C 160.766,110.028 160.766,107.694 159.5,105.5C 161.521,104.145 163.188,102.479 164.5,100.5C 166.79,103.292 168.457,102.959 169.5,99.5C 173.497,95.0305 177.83,90.8639 182.5,87C 188.159,84.2785 193.659,84.7785 199,88.5C 212.613,76.2115 227.779,66.3782 244.5,59C 258.747,53.3718 267.581,57.8718 271,72.5C 275.037,66.743 280.37,65.0763 287,67.5C 293.356,65.0058 299.856,64.8392 306.5,67C 308.319,67.7403 309.652,68.9069 310.5,70.5 Z"/></g>
<g><path style="opacity:1" fill="#d84680" d="M 90.5,73.5 C 90.6567,74.8734 90.49,76.2068 90,77.5C 89.7679,76.2625 89.2679,75.2625 88.5,74.5C 86.9312,68.0951 83.2645,63.2617 77.5,60C 57.7767,52.5564 41.2767,57.0564 28,73.5C 24.0995,80.5104 23.5995,87.5104 26.5,94.5C 27.4916,94.3284 28.1583,94.6618 28.5,95.5C 24.2007,102.07 21.8674,109.403 21.5,117.5C 21.7692,119.429 21.2692,121.095 20,122.5C 19.502,119.518 19.3354,116.518 19.5,113.5C 20.0184,109.453 20.8518,105.453 22,101.5C 22.3333,93.5 22.6667,85.5 23,77.5C 26.3413,73.5873 25.5079,70.5873 20.5,68.5C 18.883,65.2157 16.5497,62.5491 13.5,60.5C 4.51272,44.7394 0.679391,27.7394 2,9.5C 2.8926,8.91858 3.8926,8.58524 5,8.5C 22.9028,13.3986 35.5695,24.3986 43,41.5C 44.5236,46.6302 46.3569,51.6302 48.5,56.5C 52.55,55.2873 56.55,54.1206 60.5,53C 56.0946,36.3411 57.0946,20.0077 63.5,4C 64.3333,3.83333 65.1667,3.66667 66,3.5C 76.1274,8.63566 83.1274,16.6357 87,27.5C 91.4606,40.1013 91.6273,52.768 87.5,65.5C 88.9,68.0354 89.9,70.702 90.5,73.5 Z"/></g>
<g><path style="opacity:1" fill="#0d0606" d="M 4.5,11.5 C 17.607,14.776 27.7736,22.1093 35,33.5C 40.1964,40.7652 43.1964,48.7652 44,57.5C 42.9148,58.2931 41.7481,58.9598 40.5,59.5C 36.8561,51.5453 32.6895,43.8787 28,36.5C 25.5,34 23,31.5 20.5,29C 18.559,27.0972 16.2257,26.2639 13.5,26.5C 13.5853,33.6782 14.7519,40.6782 17,47.5C 20.7571,54.685 25.2571,61.3516 30.5,67.5C 29.7248,69.4753 28.3914,70.3087 26.5,70C 10.1209,54.0386 2.78761,34.5386 4.5,11.5 Z"/></g>
<g><path style="opacity:1" fill="#0b0405" d="M 64.5,6.5 C 69.0133,8.02132 72.8467,10.688 76,14.5C 87.47,29.0315 90.3033,45.0315 84.5,62.5C 80.3954,60.0448 79.3954,56.5448 81.5,52C 81.3443,44.0286 78.3443,37.3619 72.5,32C 71.552,31.5172 70.552,31.3505 69.5,31.5C 69.5,39.1667 69.5,46.8333 69.5,54.5C 67.2075,54.7564 65.0408,54.4231 63,53.5C 59.3023,37.6746 59.8023,22.008 64.5,6.5 Z"/></g>
<g><path style="opacity:1" fill="#2a2727" d="M 13.5,60.5 C 16.5497,62.5491 18.883,65.2157 20.5,68.5C 18.9826,68.4894 17.8159,67.8228 17,66.5C 15.3055,64.7604 14.1389,62.7604 13.5,60.5 Z"/></g>
<g><path style="opacity:1" fill="#c73f7a" d="M 64.5,65.5 C 67.7553,65.0136 70.422,66.0136 72.5,68.5C 74.0876,65.7429 76.421,64.9096 79.5,66C 78.3147,67.353 76.9814,68.5197 75.5,69.5C 76.5,71.1667 77.8333,72.5 79.5,73.5C 77.0407,74.643 74.7073,74.3096 72.5,72.5C 70.422,74.9864 67.7553,75.9864 64.5,75.5C 64.1719,72.0184 64.1719,68.6851 64.5,65.5 Z"/></g>
<g><path style="opacity:1" fill="#1e0f12" d="M 66.5,68.5 C 71.3396,69.1885 71.6729,70.8552 67.5,73.5C 66.5481,71.9547 66.2148,70.288 66.5,68.5 Z"/></g>
<g><path style="opacity:1" fill="#f2f2f2" d="M 370.5,179.5 C 369.671,172.679 369.171,165.679 369,158.5C 363.426,149.423 356.259,141.756 347.5,135.5C 346.808,136.025 346.308,136.692 346,137.5C 345.101,145.967 343.601,154.3 341.5,162.5C 340.672,163.415 339.672,164.081 338.5,164.5C 337.719,163.263 336.719,162.263 335.5,161.5C 334.851,163.624 334.017,165.624 333,167.5C 328.818,162.321 327.485,156.321 329,149.5C 331.17,128.781 333.337,108.114 335.5,87.5C 331.316,86.8336 326.982,86.1669 322.5,85.5C 321.092,84.7568 319.759,83.9234 318.5,83C 321.66,81.6289 324.994,80.6289 328.5,80C 326.616,79.7837 324.949,79.117 323.5,78C 325.578,76.5142 326.911,74.5142 327.5,72C 347.754,70.1532 367.087,73.4866 385.5,82C 391.632,87.3421 393.132,93.8421 390,101.5C 380.973,110.265 370.806,117.432 359.5,123C 369.536,133.368 379.203,144.034 388.5,155C 388,155.167 387.5,155.333 387,155.5C 385.607,154.385 384.107,153.885 382.5,154C 388.093,158.66 391.26,164.493 392,171.5C 386.029,167.695 380.196,163.695 374.5,159.5C 373.808,160.025 373.308,160.692 373,161.5C 373.129,167.916 372.295,173.916 370.5,179.5 Z"/></g>
<g><path style="opacity:1" fill="#f3f3f3" d="M 303.5,75.5 C 310.475,79.1415 315.808,84.4748 319.5,91.5C 322.545,105.298 322.045,118.965 318,132.5C 314.142,144.853 306.309,153.52 294.5,158.5C 292.004,152.796 287.671,150.962 281.5,153C 280.364,154.145 279.364,155.312 278.5,156.5C 269.732,151.87 264.565,144.536 263,134.5C 259.318,112.044 265.151,92.5445 280.5,76C 282.809,75.2438 284.809,75.7438 286.5,77.5C 291.855,74.3493 297.522,73.6827 303.5,75.5 Z"/></g>
<g><path style="opacity:1" fill="#f3f4f3" d="M 232.5,161.5 C 225.663,160.285 218.996,158.285 212.5,155.5C 207.793,149.275 204.126,142.442 201.5,135C 202.828,131.359 204.662,128.859 207,127.5C 208.645,127.693 210.479,127.86 212.5,128C 216.474,134.795 220.808,141.295 225.5,147.5C 231.477,144.522 236.143,140.188 239.5,134.5C 239.471,132.971 238.804,131.804 237.5,131C 226.079,124.207 214.912,117.041 204,109.5C 202,105.167 202,100.833 204,96.5C 216.356,84.3976 230.523,74.8976 246.5,68C 249.23,67.2716 251.897,67.4383 254.5,68.5C 255.281,67.2634 256.281,66.2634 257.5,65.5C 258.088,67.9109 259.255,69.9109 261,71.5C 260.147,83.6197 258.314,95.6197 255.5,107.5C 251.845,107.528 249.178,105.861 247.5,102.5C 246.833,102.833 246.167,103.167 245.5,103.5C 244.685,101.724 243.518,101.057 242,101.5C 242.087,97.1146 241.92,92.7813 241.5,88.5C 234.096,92.1944 227.429,96.8611 221.5,102.5C 222.313,103.814 223.313,104.981 224.5,106C 233.669,111.417 242.669,117.083 251.5,123C 258.894,130.001 259.394,137.501 253,145.5C 247.417,152.6 240.584,157.934 232.5,161.5 Z"/></g>
<g><path style="opacity:1" fill="#e24287" d="M 585.5,96.5 C 584.026,101.895 582.692,107.228 581.5,112.5C 581.533,108.898 580.199,105.898 577.5,103.5C 577.833,102.833 578.167,102.167 578.5,101.5C 575.084,101.934 571.751,101.267 568.5,99.5C 569.42,91.732 570.92,84.0653 573,76.5C 574.33,72.9933 576.83,71.3266 580.5,71.5C 580.135,75.4756 581.635,76.4756 585,74.5C 586.326,74.7549 587.326,75.4216 588,76.5C 588.15,83.2717 587.317,89.9383 585.5,96.5 Z"/></g>
<g><path style="opacity:1" fill="#090909" d="M 351.5,88.5 C 359.656,88.7885 367.323,90.7885 374.5,94.5C 367.536,101.32 359.536,106.654 350.5,110.5C 350.167,109.833 349.833,109.167 349.5,108.5C 350.387,101.856 351.054,95.189 351.5,88.5 Z"/></g>
<g><path style="opacity:1" fill="#050505" d="M 295.5,89.5 C 300.133,88.4582 303.299,90.1249 305,94.5C 308.2,110.707 305.2,125.707 296,139.5C 286.565,147.707 280.565,145.707 278,133.5C 275.289,115.279 281.122,100.612 295.5,89.5 Z"/></g>
<g><path style="opacity:1" fill="#070203" d="M 21.5,117.5 C 21.8674,109.403 24.2007,102.07 28.5,95.5C 34.2195,93.5392 40.0528,91.8726 46,90.5C 52.0643,92.297 58.2309,92.797 64.5,92C 72.4085,87.9654 80.4085,87.9654 88.5,92C 89.3567,92.6891 90.0233,93.5224 90.5,94.5C 72.8558,95.9411 55.1892,97.1078 37.5,98C 35.3299,98.8112 33.6632,100.145 32.5,102C 32.6448,102.772 32.9781,103.439 33.5,104C 35.1341,104.494 36.8008,104.66 38.5,104.5C 40.323,117.077 47.323,121.577 59.5,118C 65.1649,114.838 67.8316,110.005 67.5,103.5C 69.5273,103.338 71.5273,103.505 73.5,104C 76.8701,115.019 83.8701,118.519 94.5,114.5C 96.6081,117.264 96.9415,120.264 95.5,123.5C 91.36,131.132 85.0267,135.966 76.5,138C 64.0933,140.191 51.76,139.858 39.5,137C 30.1077,133.448 24.1077,126.948 21.5,117.5 Z"/></g>
<g><path style="opacity:1" fill="#21c4e0" d="M 568.5,99.5 C 571.751,101.267 575.084,101.934 578.5,101.5C 578.167,102.167 577.833,102.833 577.5,103.5C 580.199,105.898 581.533,108.898 581.5,112.5C 581.5,113.167 581.5,113.833 581.5,114.5C 579.416,117.59 576.749,119.923 573.5,121.5C 573.5,122.5 573.5,123.5 573.5,124.5C 570.572,124.435 567.905,123.768 565.5,122.5C 565.664,114.685 566.664,107.019 568.5,99.5 Z"/></g>
<g><path style="opacity:1" fill="#282625" d="M 456.5,102.5 C 457.239,102.369 457.906,102.536 458.5,103C 456.083,104.626 453.583,106.126 451,107.5C 450.667,107.167 450.333,106.833 450,106.5C 448.851,92.1548 447.518,77.8215 446,63.5C 441.722,53.1183 434.222,49.9516 423.5,54C 420.966,54.5163 418.8,55.683 417,57.5C 411.828,69.842 406.662,82.1753 401.5,94.5C 400.679,87.6791 397.679,81.5124 392.5,76C 378.801,68.5235 364.135,64.1902 348.5,63C 341.167,62.3333 333.833,62.3333 326.5,63C 322.381,65.2905 318.714,68.1238 315.5,71.5C 313.865,70.9537 312.199,70.6204 310.5,70.5C 309.652,68.9069 308.319,67.7403 306.5,67C 299.856,64.8392 293.356,65.0058 287,67.5C 280.37,65.0763 275.037,66.743 271,72.5C 267.581,57.8718 258.747,53.3718 244.5,59C 227.779,66.3782 212.613,76.2115 199,88.5C 193.659,84.7785 188.159,84.2785 182.5,87C 177.83,90.8639 173.497,95.0305 169.5,99.5C 167.976,98.8262 166.642,97.8262 165.5,96.5C 164.571,97.6888 164.238,99.0222 164.5,100.5C 163.188,102.479 161.521,104.145 159.5,105.5C 155.394,108.429 151.394,111.596 147.5,115C 143.137,117.684 138.47,119.518 133.5,120.5C 133.281,121.675 133.614,122.675 134.5,123.5C 139.044,125.275 143.377,127.275 147.5,129.5C 147.062,129.435 146.728,129.601 146.5,130C 149.963,134.384 154.297,137.217 159.5,138.5C 161.122,142.885 160.122,143.885 156.5,141.5C 151.039,138.435 146.372,134.435 142.5,129.5C 139.417,129.12 136.917,127.786 135,125.5C 134.991,129.962 136.491,133.962 139.5,137.5C 140.145,143.898 141.145,150.231 142.5,156.5C 141.333,160.5 140.167,164.5 139,168.5C 138,170.833 136.333,172.5 134,173.5C 133.194,176.446 131.861,179.112 130,181.5C 129.118,184.789 128.452,188.123 128,191.5C 126.35,194.106 124.85,194.106 123.5,191.5C 124.568,190.566 125.901,190.232 127.5,190.5C 127.303,184.788 128.303,179.288 130.5,174C 132.29,172.266 134.29,170.766 136.5,169.5C 141.622,161.898 141.622,154.398 136.5,147C 137.62,145.263 138.62,143.429 139.5,141.5C 136.683,137.067 133.683,132.734 130.5,128.5C 131.075,125.135 131.742,121.802 132.5,118.5C 132.291,117.914 131.957,117.414 131.5,117C 123.634,114.866 119.967,117.866 120.5,126C 121.167,126.333 121.833,126.667 122.5,127C 120.5,127.333 118.5,127.667 116.5,128C 113.751,130.423 110.751,132.423 107.5,134C 106.556,136.719 106.223,139.552 106.5,142.5C 104.143,142.337 101.81,142.503 99.5,143C 96.8559,144.57 94.0225,145.737 91,146.5C 86.8443,145.339 83.011,143.505 79.5,141C 85.9489,138.447 91.2822,134.447 95.5,129C 96.448,128.517 97.448,128.351 98.5,128.5C 100.113,123.193 99.78,118.026 97.5,113C 99.1715,108.647 100.338,104.147 101,99.5C 107.29,97.1078 113.456,94.2744 119.5,91C 122.933,88.6313 125.266,85.4646 126.5,81.5C 125.328,78.1638 122.995,75.9971 119.5,75C 110.44,72.8795 101.44,73.0462 92.5,75.5C 91.8182,74.7573 91.1515,74.0906 90.5,73.5C 89.9,70.702 88.9,68.0354 87.5,65.5C 91.6273,52.768 91.4606,40.1013 87,27.5C 83.1274,16.6357 76.1274,8.63566 66,3.5C 65.1667,3.66667 64.3333,3.83333 63.5,4C 57.0946,20.0077 56.0946,36.3411 60.5,53C 56.55,54.1206 52.55,55.2873 48.5,56.5C 46.3569,51.6302 44.5236,46.6302 43,41.5C 35.5695,24.3986 22.9028,13.3986 5,8.5C 3.8926,8.58524 2.8926,8.91858 2,9.5C 0.679391,27.7394 4.51272,44.7394 13.5,60.5C 12.2058,59.7101 11.0391,58.7101 10,57.5C 1.01001,41.5724 -1.48999,24.739 2.5,7C 5.76878,7.15654 9.10211,7.48987 12.5,8C 30.1537,16.9775 41.9871,30.8109 48,49.5C 50.4558,53.1635 53.1225,53.1635 56,49.5C 55.0155,34.022 56.6822,18.6886 61,3.5C 62.4413,2.13003 64.108,1.13003 66,0.5C 71.505,2.99426 76.1717,6.66093 80,11.5C 91.3437,27.3965 94.8437,45.0632 90.5,64.5C 91.5314,66.3822 92.3647,68.3822 93,70.5C 101.8,70.3518 110.634,70.8518 119.5,72C 129.864,77.0102 130.864,83.3435 122.5,91C 116.08,94.6272 109.58,98.1272 103,101.5C 102.027,103.392 101.36,105.392 101,107.5C 100.667,114.833 100.333,122.167 100,129.5C 96.8437,132.515 93.3437,134.848 89.5,136.5C 89.756,138.912 88.756,140.579 86.5,141.5C 88,141.833 89.5,142.167 91,142.5C 94.8075,141.386 98.6409,140.219 102.5,139C 103.833,136.667 105.167,134.333 106.5,132C 110.667,129.167 114.833,126.333 119,123.5C 119.885,114.772 124.385,111.938 132.5,115C 133.211,116.255 134.044,117.421 135,118.5C 137.93,116.745 141.097,115.578 144.5,115C 152.253,109.249 158.586,102.249 163.5,94C 164.766,93.6905 165.933,93.1905 167,92.5C 168.019,93.6872 169.186,94.6872 170.5,95.5C 174.292,92.2101 177.958,88.7101 181.5,85C 187.353,81.567 193.019,81.7336 198.5,85.5C 213.189,72.9871 229.522,63.1538 247.5,56C 259.088,51.9627 267.255,55.4627 272,66.5C 275.447,64.6118 279.114,63.2784 283,62.5C 290.143,63.2445 297.309,63.7445 304.5,64C 308.11,65.7208 311.61,67.5542 315,69.5C 320.132,63.2671 326.799,59.9338 335,59.5C 354.428,59.9826 372.928,64.1493 390.5,72C 395.019,75.5216 399.185,79.355 403,83.5C 407,74.8333 411,66.1667 415,57.5C 417.998,53.0842 422.165,50.9176 427.5,51C 437.062,48.909 443.562,52.409 447,61.5C 449.127,74.0577 450.46,86.7243 451,99.5C 451.333,100.833 451.667,102.167 452,103.5C 453.356,102.62 454.856,102.286 456.5,102.5 Z"/></g>
<g><path style="opacity:1" fill="#873451" d="M 169.5,99.5 C 168.457,102.959 166.79,103.292 164.5,100.5C 164.238,99.0222 164.571,97.6888 165.5,96.5C 166.642,97.8262 167.976,98.8262 169.5,99.5 Z"/></g>
<g><path style="opacity:1" fill="#e34585" d="M 147.5,129.5 C 143.377,127.275 139.044,125.275 134.5,123.5C 133.614,122.675 133.281,121.675 133.5,120.5C 138.47,119.518 143.137,117.684 147.5,115C 151.394,111.596 155.394,108.429 159.5,105.5C 160.766,107.694 160.766,110.028 159.5,112.5C 160.365,113.583 161.365,113.749 162.5,113C 165.833,111 169.167,109 172.5,107C 176.866,102.299 181.533,97.966 186.5,94C 188.473,93.5045 190.473,93.3379 192.5,93.5C 192.716,97.0592 192.382,100.559 191.5,104C 199.1,110.857 199.933,118.357 194,126.5C 194.464,139.92 189.13,143.253 178,136.5C 176.739,136.759 175.739,137.426 175,138.5C 174.321,149.186 174.488,159.852 175.5,170.5C 174.167,170.5 172.833,170.5 171.5,170.5C 172.523,159.185 172.69,147.852 172,136.5C 171.692,135.692 171.192,135.025 170.5,134.5C 169.52,137.086 169.187,139.753 169.5,142.5C 168.5,142.5 167.5,142.5 166.5,142.5C 166.665,138.818 166.499,135.152 166,131.5C 164.556,129.845 162.722,129.178 160.5,129.5C 160.884,131.665 160.217,133.332 158.5,134.5C 154.931,132.547 151.264,130.881 147.5,129.5 Z"/></g>
<g><path style="opacity:1" fill="#6791c6" d="M 508.5,113.5 C 509.5,113.167 510.167,112.5 510.5,111.5C 512.672,110.199 515.005,109.199 517.5,108.5C 517.5,109.833 517.5,111.167 517.5,112.5C 514.509,112.33 512.509,113.663 511.5,116.5C 510.145,115.812 509.145,114.812 508.5,113.5 Z"/></g>
<g><path style="opacity:1" fill="#2f2e2d" d="M 296.5,100.5 C 298.689,112.993 295.855,124.327 288,134.5C 284.972,121.645 287.805,110.311 296.5,100.5 Z"/></g>
<g><path style="opacity:1" fill="#060606" d="M 456.5,102.5 C 459.203,101.037 462.203,100.204 465.5,100C 477.161,99.2284 488.827,98.5617 500.5,98C 501.894,93.8706 503.228,89.704 504.5,85.5C 504.392,84.5581 504.059,83.7247 503.5,83C 504.87,76.7472 506.204,70.5805 507.5,64.5C 507.369,65.2389 507.536,65.9056 508,66.5C 512.523,59.5209 518.69,57.6876 526.5,61C 534.886,63.3858 539.72,68.8858 541,77.5C 541.608,75.8455 542.108,74.1789 542.5,72.5C 543.29,71.3915 543.79,70.0581 544,68.5C 545.61,71.5975 546.61,74.9308 547,78.5C 547.77,79.5981 548.603,79.5981 549.5,78.5C 547.57,88.0807 546.07,97.7474 545,107.5C 538.956,108.201 532.956,109.201 527,110.5C 528.075,98.4619 529.408,86.4619 531,74.5C 527.853,72.699 524.687,70.8657 521.5,69C 520.167,68.3333 518.833,68.3333 517.5,69C 516.046,73.0087 515.379,77.1753 515.5,81.5C 513.978,86.2729 512.978,91.2729 512.5,96.5C 511.508,101.452 510.842,106.452 510.5,111.5C 510.167,112.5 509.5,113.167 508.5,113.5C 505.801,113.466 503.301,114.133 501,115.5C 501.751,119.736 502.585,124.069 503.5,128.5C 504.5,128.5 505.5,128.5 506.5,128.5C 506.577,132.215 506.244,135.881 505.5,139.5C 504.437,135.19 502.937,134.856 501,138.5C 500.333,137.167 499.667,137.167 499,138.5C 498.768,137.263 498.268,136.263 497.5,135.5C 497.586,134.504 497.252,133.671 496.5,133C 494.833,132.333 493.167,132.333 491.5,133C 490.707,136.411 490.207,139.911 490,143.5C 489.215,145.286 488.049,146.786 486.5,148C 481.503,149.085 476.503,150.252 471.5,151.5C 468.421,151.2 465.921,149.867 464,147.5C 462.621,142.964 462.121,138.297 462.5,133.5C 458.063,133.547 454.73,135.381 452.5,139C 452.921,141.185 453.421,143.351 454,145.5C 454.464,144.906 454.631,144.239 454.5,143.5C 455.404,144.209 455.737,145.209 455.5,146.5C 454.672,152.319 454.172,158.319 454,164.5C 451.743,168.683 449.743,173.016 448,177.5C 442.977,182.335 437.644,182.668 432,178.5C 426.634,166.372 423.134,153.705 421.5,140.5C 420.178,140.33 419.011,140.663 418,141.5C 415.273,147.679 412.94,154.013 411,160.5C 411.484,166.795 411.484,173.129 411,179.5C 409.454,180.503 409.287,181.503 410.5,182.5C 410.167,183.5 409.5,184.167 408.5,184.5C 405.044,184.354 401.378,184.188 397.5,184C 391.999,181.387 386.832,178.221 382,174.5C 382.39,182.436 378.723,187.102 371,188.5C 368.454,188.141 366.287,187.141 364.5,185.5C 366.527,185.662 368.527,185.495 370.5,185C 373.018,183.19 373.018,181.357 370.5,179.5C 372.295,173.916 373.129,167.916 373,161.5C 373.308,160.692 373.808,160.025 374.5,159.5C 380.196,163.695 386.029,167.695 392,171.5C 391.26,164.493 388.093,158.66 382.5,154C 384.107,153.885 385.607,154.385 387,155.5C 387.5,155.333 388,155.167 388.5,155C 379.203,144.034 369.536,133.368 359.5,123C 370.806,117.432 380.973,110.265 390,101.5C 393.132,93.8421 391.632,87.3421 385.5,82C 367.087,73.4866 347.754,70.1532 327.5,72C 326.911,74.5142 325.578,76.5142 323.5,78C 324.949,79.117 326.616,79.7837 328.5,80C 324.994,80.6289 321.66,81.6289 318.5,83C 319.759,83.9234 321.092,84.7568 322.5,85.5C 326.982,86.1669 331.316,86.8336 335.5,87.5C 331.116,87.1744 326.783,87.5078 322.5,88.5C 321.23,89.2876 320.23,90.2876 319.5,91.5C 315.808,84.4748 310.475,79.1415 303.5,75.5C 306.129,75.8564 308.796,75.3564 311.5,74C 311.957,73.586 312.291,73.086 312.5,72.5C 311.757,71.8182 311.091,71.1515 310.5,70.5C 312.199,70.6204 313.865,70.9537 315.5,71.5C 318.714,68.1238 322.381,65.2905 326.5,63C 333.833,62.3333 341.167,62.3333 348.5,63C 364.135,64.1902 378.801,68.5235 392.5,76C 397.679,81.5124 400.679,87.6791 401.5,94.5C 406.662,82.1753 411.828,69.842 417,57.5C 418.8,55.683 420.966,54.5163 423.5,54C 434.222,49.9516 441.722,53.1183 446,63.5C 447.518,77.8215 448.851,92.1548 450,106.5C 450.333,106.833 450.667,107.167 451,107.5C 453.583,106.126 456.083,104.626 458.5,103C 457.906,102.536 457.239,102.369 456.5,102.5 Z"/></g>
<g><path style="opacity:1" fill="#25e8f4" d="M 481.5,110.5 C 486.511,110.334 491.511,110.501 496.5,111C 495.748,111.671 495.414,112.504 495.5,113.5C 493.204,113.804 492.871,114.804 494.5,116.5C 491.054,117.612 489.054,119.945 488.5,123.5C 486.588,124.799 484.588,125.799 482.5,126.5C 481.046,125.48 480.713,124.313 481.5,123C 479.881,122.764 478.881,121.931 478.5,120.5C 479.768,117.633 481.768,116.966 484.5,118.5C 485.466,116.604 485.799,114.604 485.5,112.5C 483.517,112.843 482.183,112.176 481.5,110.5 Z"/></g>
<g><path style="opacity:1" fill="#63b0bf" d="M 471.5,110.5 C 479.99,109.343 488.657,109.176 497.5,110C 500.194,112.552 499.527,113.719 495.5,113.5C 495.414,112.504 495.748,111.671 496.5,111C 491.511,110.501 486.511,110.334 481.5,110.5C 478.167,110.5 474.833,110.5 471.5,110.5 Z"/></g>
<g><path style="opacity:1" fill="#33bfdc" d="M 515.5,81.5 C 519.164,86.8005 522.831,92.1338 526.5,97.5C 524.744,99.1648 522.577,100.165 520,100.5C 517.568,99.0342 515.068,97.7008 512.5,96.5C 512.978,91.2729 513.978,86.2729 515.5,81.5 Z"/></g>
<g><path style="opacity:1" fill="#f0f1f1" d="M 471.5,110.5 C 474.833,110.5 478.167,110.5 481.5,110.5C 482.183,112.176 483.517,112.843 485.5,112.5C 485.799,114.604 485.466,116.604 484.5,118.5C 481.768,116.966 479.768,117.633 478.5,120.5C 475.632,123.267 472.299,124.934 468.5,125.5C 462.45,126.675 459.45,124.342 459.5,118.5C 456.009,118.909 452.675,119.909 449.5,121.5C 451.078,122.298 452.744,122.798 454.5,123C 452.845,124.444 452.178,126.278 452.5,128.5C 448.703,128.311 445.703,129.644 443.5,132.5C 445.445,142.452 445.778,152.452 444.5,162.5C 443.719,161.271 443.219,159.938 443,158.5C 442.667,160.833 442.333,163.167 442,165.5C 441.667,164.833 441.333,164.167 441,163.5C 440.667,166.833 440.333,170.167 440,173.5C 438.767,170.703 437.267,168.037 435.5,165.5C 432.635,154.31 430.635,142.976 429.5,131.5C 423.292,131.524 417.292,132.524 411.5,134.5C 408.701,141.397 406.201,148.397 404,155.5C 403.5,162.492 403.334,169.492 403.5,176.5C 402.5,176.5 401.5,176.5 400.5,176.5C 400.635,167.625 400.135,158.958 399,150.5C 398.333,151.833 397.667,153.167 397,154.5C 395.601,153.773 394.101,153.273 392.5,153C 391.79,147.309 392.79,141.809 395.5,136.5C 390.537,136.487 385.537,136.153 380.5,135.5C 381.729,134.719 383.062,134.219 384.5,134C 385.167,132 386.5,130.667 388.5,130C 384.5,129.667 380.5,129.333 376.5,129C 384.496,124.446 392.996,121.279 402,119.5C 408.612,100.943 415.779,82.6102 423.5,64.5C 425.686,63.7792 427.853,63.1125 430,62.5C 430.915,63.3279 431.581,64.3279 432,65.5C 432.219,64.062 432.719,62.7287 433.5,61.5C 436.547,63.7169 438.047,66.7169 438,70.5C 439.739,85.7955 440.906,101.129 441.5,116.5C 448.284,116.92 454.95,116.42 461.5,115C 460.209,112.91 460.876,111.576 463.5,111C 466.146,110.503 468.813,110.336 471.5,110.5 Z"/></g>
<g><path style="opacity:1" fill="#141414" d="M 424.5,100.5 C 425.222,100.918 425.722,101.584 426,102.5C 426.501,107.508 427.001,112.508 427.5,117.5C 424.833,117.5 422.167,117.5 419.5,117.5C 420.867,111.76 422.534,106.093 424.5,100.5 Z"/></g>
<g><path style="opacity:1" fill="#e24183" d="M 558.5,114.5 C 554.139,115.772 553.805,117.105 557.5,118.5C 555.106,135.742 551.606,152.742 547,169.5C 546.869,162.976 547.369,156.476 548.5,150C 548.333,149.167 548.167,148.333 548,147.5C 543.805,161.964 539.472,176.298 535,190.5C 534.333,185.167 534.333,179.833 535,174.5C 537.308,157.509 539.475,140.509 541.5,123.5C 535.149,123.538 528.982,124.538 523,126.5C 521.277,136.23 519.277,145.897 517,155.5C 516.411,145.261 515.411,145.594 514,156.5C 512.806,154.377 512.14,152.043 512,149.5C 510.388,152.617 508.554,155.617 506.5,158.5C 505.914,158.291 505.414,157.957 505,157.5C 504.425,151.478 504.591,145.478 505.5,139.5C 506.244,135.881 506.577,132.215 506.5,128.5C 505.5,128.5 504.5,128.5 503.5,128.5C 502.585,124.069 501.751,119.736 501,115.5C 503.301,114.133 505.801,113.466 508.5,113.5C 509.145,114.812 510.145,115.812 511.5,116.5C 512.509,113.663 514.509,112.33 517.5,112.5C 517.5,111.167 517.5,109.833 517.5,108.5C 515.005,109.199 512.672,110.199 510.5,111.5C 510.842,106.452 511.508,101.452 512.5,96.5C 515.068,97.7008 517.568,99.0342 520,100.5C 522.577,100.165 524.744,99.1648 526.5,97.5C 522.831,92.1338 519.164,86.8005 515.5,81.5C 515.379,77.1753 516.046,73.0087 517.5,69C 518.833,68.3333 520.167,68.3333 521.5,69C 524.687,70.8657 527.853,72.699 531,74.5C 529.408,86.4619 528.075,98.4619 527,110.5C 532.956,109.201 538.956,108.201 545,107.5C 546.07,97.7474 547.57,88.0807 549.5,78.5C 550.658,69.5521 552.325,60.7188 554.5,52C 554.833,51.8333 555.167,51.6667 555.5,51.5C 556.225,55.2549 557.225,58.9216 558.5,62.5C 559.167,61.8333 559.833,61.1667 560.5,60.5C 566.028,63.44 567.862,68.1067 566,74.5C 563.434,87.8303 560.934,101.164 558.5,114.5 Z"/></g>
<g><path style="opacity:1" fill="#3b9fd6" d="M 558.5,114.5 C 558.167,115.833 557.833,117.167 557.5,118.5C 553.805,117.105 554.139,115.772 558.5,114.5 Z"/></g>
<g><path style="opacity:1" fill="#e5eaea" d="M 494.5,116.5 C 495.239,116.369 495.906,116.536 496.5,117C 496.038,118.722 495.872,120.555 496,122.5C 493.619,123.435 491.119,123.768 488.5,123.5C 489.054,119.945 491.054,117.612 494.5,116.5 Z"/></g>
<g><path style="opacity:1" fill="#1cb7c7" d="M 478.5,120.5 C 478.881,121.931 479.881,122.764 481.5,123C 480.713,124.313 481.046,125.48 482.5,126.5C 482.5,131.167 482.5,135.833 482.5,140.5C 481.5,140.5 480.5,140.5 479.5,140.5C 479.5,135.5 479.5,130.5 479.5,125.5C 477.533,125.261 475.699,125.594 474,126.5C 473.501,131.823 473.334,137.156 473.5,142.5C 472.5,142.5 471.5,142.5 470.5,142.5C 471.011,136.582 470.344,130.915 468.5,125.5C 472.299,124.934 475.632,123.267 478.5,120.5 Z"/></g>
<g><path style="opacity:1" fill="#df4488" d="M 581.5,114.5 C 580.687,123.156 580.52,131.823 581,140.5C 583.298,143.526 586.131,144.192 589.5,142.5C 589.782,143.778 590.449,144.778 591.5,145.5C 588.58,146.878 585.746,148.545 583,150.5C 582.333,152.5 582.333,154.5 583,156.5C 583.414,156.957 583.914,157.291 584.5,157.5C 586.204,155.959 588.037,154.625 590,153.5C 592.185,153.698 593.685,154.698 594.5,156.5C 591.326,158.496 587.826,159.83 584,160.5C 583.5,167.158 583.334,173.825 583.5,180.5C 582.5,180.5 581.5,180.5 580.5,180.5C 580.5,175.167 580.5,169.833 580.5,164.5C 577.83,159.153 573.997,154.487 569,150.5C 564.622,141.442 563.455,132.109 565.5,122.5C 567.905,123.768 570.572,124.435 573.5,124.5C 573.5,123.5 573.5,122.5 573.5,121.5C 576.749,119.923 579.416,117.59 581.5,114.5 Z"/></g>
<g><path style="opacity:1" fill="#212120" d="M 497.5,135.5 C 496.153,143.454 495.653,151.454 496,159.5C 497.694,162.358 499.861,164.691 502.5,166.5C 499.737,166.256 497.571,164.923 496,162.5C 495.667,162.833 495.333,163.167 495,163.5C 494.333,156.974 493.333,150.307 492,143.5C 490.33,148.639 486.997,150.973 482,150.5C 467.781,156.64 460.281,151.974 459.5,136.5C 455.627,137.244 453.96,139.577 454.5,143.5C 454.631,144.239 454.464,144.906 454,145.5C 453.421,143.351 452.921,141.185 452.5,139C 454.73,135.381 458.063,133.547 462.5,133.5C 462.121,138.297 462.621,142.964 464,147.5C 465.921,149.867 468.421,151.2 471.5,151.5C 476.503,150.252 481.503,149.085 486.5,148C 488.049,146.786 489.215,145.286 490,143.5C 490.207,139.911 490.707,136.411 491.5,133C 493.167,132.333 494.833,132.333 496.5,133C 497.252,133.671 497.586,134.504 497.5,135.5 Z"/></g>
<g><path style="opacity:1" fill="#060304" d="M 594.5,96.5 C 591.523,97.6776 588.523,97.6776 585.5,96.5C 587.317,89.9383 588.15,83.2717 588,76.5C 587.326,75.4216 586.326,74.7549 585,74.5C 581.635,76.4756 580.135,75.4756 580.5,71.5C 576.83,71.3266 574.33,72.9933 573,76.5C 570.92,84.0653 569.42,91.732 568.5,99.5C 566.664,107.019 565.664,114.685 565.5,122.5C 563.455,132.109 564.622,141.442 569,150.5C 573.997,154.487 577.83,159.153 580.5,164.5C 578.997,165.682 577.33,166.182 575.5,166C 574.116,164.122 572.116,162.122 569.5,160C 569.833,159.667 570.167,159.333 570.5,159C 568.934,158.235 567.601,158.402 566.5,159.5C 564.602,157.617 562.769,155.617 561,153.5C 559.616,160.655 557.616,167.655 555,174.5C 553.266,176.451 551.099,177.451 548.5,177.5C 547.281,181.734 546.114,186.067 545,190.5C 542.706,196.934 538.206,199.434 531.5,198C 529,196.833 527.167,195 526,192.5C 525.333,188.167 525.333,183.833 526,179.5C 528.165,164.181 529.832,148.848 531,133.5C 529.243,141.455 527.576,149.455 526,157.5C 525.727,159.329 524.893,160.829 523.5,162C 524.056,162.383 524.389,162.883 524.5,163.5C 522.765,165.235 520.765,166.568 518.5,167.5C 517.558,167.392 516.725,167.059 516,166.5C 512.008,168.27 507.841,168.77 503.5,168C 502.944,167.617 502.611,167.117 502.5,166.5C 499.861,164.691 497.694,162.358 496,159.5C 495.653,151.454 496.153,143.454 497.5,135.5C 498.268,136.263 498.768,137.263 499,138.5C 499.667,137.167 500.333,137.167 501,138.5C 502.937,134.856 504.437,135.19 505.5,139.5C 504.591,145.478 504.425,151.478 505,157.5C 505.414,157.957 505.914,158.291 506.5,158.5C 508.554,155.617 510.388,152.617 512,149.5C 512.14,152.043 512.806,154.377 514,156.5C 515.411,145.594 516.411,145.261 517,155.5C 519.277,145.897 521.277,136.23 523,126.5C 528.982,124.538 535.149,123.538 541.5,123.5C 539.475,140.509 537.308,157.509 535,174.5C 534.333,179.833 534.333,185.167 535,190.5C 539.472,176.298 543.805,161.964 548,147.5C 548.167,148.333 548.333,149.167 548.5,150C 547.369,156.476 546.869,162.976 547,169.5C 551.606,152.742 555.106,135.742 557.5,118.5C 557.833,117.167 558.167,115.833 558.5,114.5C 560.934,101.164 563.434,87.8303 566,74.5C 567.862,68.1067 566.028,63.44 560.5,60.5C 559.833,61.1667 559.167,61.8333 558.5,62.5C 557.225,58.9216 556.225,55.2549 555.5,51.5C 555.167,51.6667 554.833,51.8333 554.5,52C 552.325,60.7188 550.658,69.5521 549.5,78.5C 548.603,79.5981 547.77,79.5981 547,78.5C 546.61,74.9308 545.61,71.5975 544,68.5C 543.79,70.0581 543.29,71.3915 542.5,72.5C 542.402,63.0841 544.235,54.0841 548,45.5C 557.702,39.926 564.202,42.5927 567.5,53.5C 571.167,55.1667 573.833,57.8333 575.5,61.5C 578.107,62.3184 580.774,62.8184 583.5,63C 585.956,64.7105 588.623,66.0438 591.5,67C 596.211,70.0883 598.211,74.4216 597.5,80C 597.023,85.5975 596.023,91.0975 594.5,96.5 Z"/></g>
<g><path style="opacity:1" fill="#202120" d="M 455.5,146.5 C 456.343,153.136 456.176,159.802 455,166.5C 452.726,170.714 450.726,175.047 449,179.5C 443.411,184.386 437.577,184.72 431.5,180.5C 427.083,175.329 424.583,169.329 424,162.5C 420.492,158.962 419.659,154.796 421.5,150C 420.897,148.175 420.23,146.341 419.5,144.5C 417.436,148.732 415.603,153.065 414,157.5C 413.667,164.5 413.333,171.5 413,178.5C 412.8,180.32 411.966,181.653 410.5,182.5C 409.287,181.503 409.454,180.503 411,179.5C 411.484,173.129 411.484,166.795 411,160.5C 412.94,154.013 415.273,147.679 418,141.5C 419.011,140.663 420.178,140.33 421.5,140.5C 423.134,153.705 426.634,166.372 432,178.5C 437.644,182.668 442.977,182.335 448,177.5C 449.743,173.016 451.743,168.683 454,164.5C 454.172,158.319 454.672,152.319 455.5,146.5 Z"/></g>
<g><path style="opacity:1" fill="#070403" d="M 663.5,67.5 C 665.553,67.4021 667.22,68.0687 668.5,69.5C 666.621,69.3932 666.288,69.8932 667.5,71C 677.987,73.971 685.821,80.1377 691,89.5C 694.225,99.4364 692.058,107.936 684.5,115C 693.349,123.69 694.849,133.523 689,144.5C 679.454,153.026 668.954,160.193 657.5,166C 655.737,169.936 652.737,172.103 648.5,172.5C 647.007,181.227 647.34,189.894 649.5,198.5C 649.125,208.383 644.125,212.55 634.5,211C 631.244,209.413 629.077,206.913 628,203.5C 628.566,194.165 628.399,184.832 627.5,175.5C 618.919,177.979 610.252,180.145 601.5,182C 598.24,182.784 595.073,182.617 592,181.5C 589.27,188.053 584.437,190.22 577.5,188C 575,186.833 573.167,185 572,182.5C 571.667,176.833 571.333,171.167 571,165.5C 569.668,163.34 568.168,161.34 566.5,159.5C 567.601,158.402 568.934,158.235 570.5,159C 570.167,159.333 569.833,159.667 569.5,160C 572.116,162.122 574.116,164.122 575.5,166C 577.33,166.182 578.997,165.682 580.5,164.5C 580.5,169.833 580.5,175.167 580.5,180.5C 581.5,180.5 582.5,180.5 583.5,180.5C 583.334,173.825 583.5,167.158 584,160.5C 587.826,159.83 591.326,158.496 594.5,156.5C 600.5,153.833 604.833,149.5 607.5,143.5C 611.526,138.786 614.526,133.452 616.5,127.5C 617.167,125.5 617.833,123.5 618.5,121.5C 623.184,103.999 624.684,86.3319 623,68.5C 622.333,71.1667 621.667,71.1667 621,68.5C 620.828,64.1289 620.328,59.7956 619.5,55.5C 618.671,60.4671 618.171,65.4671 618,70.5C 616.957,68.2994 616.123,65.9661 615.5,63.5C 614.736,67.6935 613.403,71.6935 611.5,75.5C 610.483,72.972 609.316,72.972 608,75.5C 607.908,92.5798 605.408,109.246 600.5,125.5C 598.595,128.304 596.929,131.304 595.5,134.5C 594.11,135.899 593.11,137.566 592.5,139.5C 591.167,140.167 590.167,141.167 589.5,142.5C 586.131,144.192 583.298,143.526 581,140.5C 580.52,131.823 580.687,123.156 581.5,114.5C 581.5,113.833 581.5,113.167 581.5,112.5C 582.692,107.228 584.026,101.895 585.5,96.5C 588.523,97.6776 591.523,97.6776 594.5,96.5C 593.184,102.435 592.184,108.435 591.5,114.5C 591.569,121.852 592.736,122.185 595,115.5C 597.577,101.614 599.243,87.6136 600,73.5C 603.463,64.5708 607.963,56.2375 613.5,48.5C 620.337,44.839 625.504,46.5056 629,53.5C 629.499,57.1516 629.665,60.8183 629.5,64.5C 635.834,63.9325 642.167,63.7658 648.5,64C 653.712,66.8472 659.212,69.0138 665,70.5C 665.239,69.212 664.739,68.212 663.5,67.5 Z"/></g>
<g><path style="opacity:1" fill="#45a2d4" d="M 600.5,125.5 C 606.622,127.058 606.955,129.558 601.5,133C 603.113,135.228 603.78,137.728 603.5,140.5C 602.5,140.5 601.5,140.5 600.5,140.5C 600.167,140.5 599.833,140.5 599.5,140.5C 598.585,138.246 597.252,136.246 595.5,134.5C 596.929,131.304 598.595,128.304 600.5,125.5 Z"/></g>
<g><path style="opacity:1" fill="#1dbada" d="M 677.5,122.5 C 681.773,124.349 684.106,127.683 684.5,132.5C 681.279,133.573 678.112,133.573 675,132.5C 673.863,128.537 674.697,125.204 677.5,122.5 Z"/></g>
<g><path style="opacity:1" fill="#eabc27" d="M 618.5,121.5 C 617.833,123.5 617.167,125.5 616.5,127.5C 615.833,127.5 615.167,127.5 614.5,127.5C 614.5,126.167 614.5,124.833 614.5,123.5C 615.514,122.326 616.847,121.66 618.5,121.5 Z"/></g>
<g><path style="opacity:1" fill="#4facde" d="M 614.5,123.5 C 614.5,124.833 614.5,126.167 614.5,127.5C 612.052,127.99 610.385,127.157 609.5,125C 610.5,122.389 612.167,121.889 614.5,123.5 Z"/></g>
<g><path style="opacity:1" fill="#e44284" d="M 618.5,121.5 C 616.847,121.66 615.514,122.326 614.5,123.5C 612.167,121.889 610.5,122.389 609.5,125C 610.385,127.157 612.052,127.99 614.5,127.5C 615.167,127.5 615.833,127.5 616.5,127.5C 614.526,133.452 611.526,138.786 607.5,143.5C 605.309,142.131 602.975,141.131 600.5,140.5C 601.5,140.5 602.5,140.5 603.5,140.5C 603.78,137.728 603.113,135.228 601.5,133C 606.955,129.558 606.622,127.058 600.5,125.5C 605.408,109.246 607.908,92.5798 608,75.5C 609.316,72.972 610.483,72.972 611.5,75.5C 613.403,71.6935 614.736,67.6935 615.5,63.5C 616.123,65.9661 616.957,68.2994 618,70.5C 618.171,65.4671 618.671,60.4671 619.5,55.5C 620.328,59.7956 620.828,64.1289 621,68.5C 621.667,71.1667 622.333,71.1667 623,68.5C 624.684,86.3319 623.184,103.999 618.5,121.5 Z"/></g>
<g><path style="opacity:1" fill="#e43f84" d="M 638.5,83.5 C 639.583,83.5394 640.583,83.8728 641.5,84.5C 642.485,90.8442 642.652,97.1775 642,103.5C 643.011,104.337 644.178,104.67 645.5,104.5C 645.5,99.1667 645.5,93.8333 645.5,88.5C 647.903,88.448 650.236,88.7814 652.5,89.5C 651.093,95.7588 650.593,102.092 651,108.5C 655.728,104.774 660.728,101.441 666,98.5C 666.617,97.5509 666.451,96.7175 665.5,96C 663.593,94.878 661.593,94.0447 659.5,93.5C 659.5,91.5 659.5,89.5 659.5,87.5C 662.513,87.8928 665.18,87.2261 667.5,85.5C 669.019,88.0205 670.686,90.5205 672.5,93C 677.226,93.0547 680.893,94.8881 683.5,98.5C 683.245,101.016 682.411,103.35 681,105.5C 676.66,109.009 672.493,112.676 668.5,116.5C 671.738,118.275 674.738,120.275 677.5,122.5C 674.697,125.204 673.863,128.537 675,132.5C 678.112,133.573 681.279,133.573 684.5,132.5C 683.934,136.797 681.934,140.297 678.5,143C 669.769,149.226 660.435,154.393 650.5,158.5C 650.247,156.173 650.914,154.173 652.5,152.5C 655.821,155.333 657.821,154.5 658.5,150C 657.521,146.188 655.521,143.021 652.5,140.5C 657.797,138.185 662.797,135.352 667.5,132C 660.953,128.445 653.953,126.279 646.5,125.5C 646.219,131.36 645.219,137.026 643.5,142.5C 642.732,143.263 642.232,144.263 642,145.5C 641.505,143.527 641.338,141.527 641.5,139.5C 640.077,138.551 638.577,137.551 637,136.5C 635.317,137.176 635.15,138.176 636.5,139.5C 635.108,141.273 633.941,143.273 633,145.5C 632.906,151.921 632.739,158.254 632.5,164.5C 620.045,169.45 607.378,172.45 594.5,173.5C 603.5,169.195 612.833,165.695 622.5,163C 619.056,163.086 615.723,163.92 612.5,165.5C 611.707,164.645 612.04,163.811 613.5,163C 610.833,163 608.167,163 605.5,163C 612.766,158.784 620.266,154.95 628,151.5C 630.089,130.881 632.922,110.381 636.5,90C 636.415,88.8926 636.081,87.8926 635.5,87C 632.964,86.8138 630.631,86.3138 628.5,85.5C 631.552,83.8217 634.885,83.155 638.5,83.5 Z"/></g>
<g><path style="opacity:1" fill="#0b0505" d="M 652.5,140.5 C 649.598,141.578 646.598,142.244 643.5,142.5C 645.219,137.026 646.219,131.36 646.5,125.5C 653.953,126.279 660.953,128.445 667.5,132C 662.797,135.352 657.797,138.185 652.5,140.5 Z"/></g>
<g><path style="opacity:1" fill="#140a0b" d="M 652.5,89.5 C 653.5,89.5 654.5,89.5 655.5,89.5C 655.784,92.2538 656.451,94.9205 657.5,97.5C 659.111,96.6798 659.778,95.3464 659.5,93.5C 661.593,94.0447 663.593,94.878 665.5,96C 666.451,96.7175 666.617,97.5509 666,98.5C 660.728,101.441 655.728,104.774 651,108.5C 650.593,102.092 651.093,95.7588 652.5,89.5 Z"/></g>
<g><path style="opacity:1" fill="#20c3e0" d="M 669.5,81.5 C 677.883,84.2073 682.55,89.874 683.5,98.5C 680.893,94.8881 677.226,93.0547 672.5,93C 670.686,90.5205 669.019,88.0205 667.5,85.5C 668.167,84.1667 668.833,82.8333 669.5,81.5 Z"/></g>
<g><path style="opacity:1" fill="#db9630" d="M 632.5,81.5 C 634.5,82.1667 636.5,82.8333 638.5,83.5C 634.885,83.155 631.552,83.8217 628.5,85.5C 629.5,83.8333 630.833,82.5 632.5,81.5 Z"/></g>
<g><path style="opacity:1" fill="#eedf15" d="M 669.5,81.5 C 668.833,82.8333 668.167,84.1667 667.5,85.5C 665.18,87.2261 662.513,87.8928 659.5,87.5C 659.5,89.5 659.5,91.5 659.5,93.5C 659.778,95.3464 659.111,96.6798 657.5,97.5C 656.451,94.9205 655.784,92.2538 655.5,89.5C 654.5,89.5 653.5,89.5 652.5,89.5C 650.236,88.7814 647.903,88.448 645.5,88.5C 645.5,93.8333 645.5,99.1667 645.5,104.5C 644.178,104.67 643.011,104.337 642,103.5C 642.652,97.1775 642.485,90.8442 641.5,84.5C 640.583,83.8728 639.583,83.5394 638.5,83.5C 636.5,82.8333 634.5,82.1667 632.5,81.5C 632.5,80.5 632.5,79.5 632.5,78.5C 631.167,78.5 629.833,78.5 628.5,78.5C 628.5,76.8333 628.5,75.1667 628.5,73.5C 633.673,73.9097 638.673,73.243 643.5,71.5C 645.556,72.0476 647.223,73.2142 648.5,75C 655.68,76.6718 662.68,78.8385 669.5,81.5 Z"/></g>
<g><path style="opacity:1" fill="#d93d84" d="M 212.5,155.5 C 218.996,158.285 225.663,160.285 232.5,161.5C 232.047,162.458 231.381,163.292 230.5,164C 228.112,164.303 225.945,165.137 224,166.5C 223.257,176.352 223.424,186.185 224.5,196C 224.905,199.944 223.405,201.11 220,199.5C 219.833,198.667 219.667,197.833 219.5,197C 220.608,186.523 220.775,176.023 220,165.5C 215.802,163.437 213.302,160.104 212.5,155.5 Z"/></g>
<g><path style="opacity:1" fill="#212221" d="M 228.5,208.5 C 217.148,212.471 210.814,208.304 209.5,196C 211.263,188.545 211.763,180.711 211,172.5C 205.684,164.682 200.517,156.849 195.5,149C 191.775,150.063 187.942,151.23 184,152.5C 183.38,157.354 183.547,162.187 184.5,167C 183.356,177.142 177.856,180.975 168,178.5C 163.999,175.385 162.166,171.218 162.5,166C 162.565,161.768 162.898,157.435 163.5,153C 163.609,150.288 162.609,148.122 160.5,146.5C 160.435,146.062 160.601,145.728 161,145.5C 161.689,146.357 162.522,147.023 163.5,147.5C 164.332,155.813 164.832,164.147 165,172.5C 165.956,173.579 166.789,174.745 167.5,176C 173.774,178.967 178.608,177.467 182,171.5C 181.669,163.516 181.669,155.516 182,147.5C 186.854,149.201 191.354,148.535 195.5,145.5C 201.457,153.551 206.957,161.885 212,170.5C 212.711,179.184 212.545,187.851 211.5,196.5C 211.34,201.556 213.34,205.389 217.5,208C 221.404,208.288 225.071,208.454 228.5,208.5 Z"/></g>
<g><path style="opacity:1" fill="#282625" d="M 20.5,68.5 C 25.5079,70.5873 26.3413,73.5873 23,77.5C 22.6667,85.5 22.3333,93.5 22,101.5C 20.8518,105.453 20.0184,109.453 19.5,113.5C 18.3376,117.687 18.3376,122.02 19.5,126.5C 20.552,126.351 21.552,126.517 22.5,127C 25.7158,131.717 29.7158,135.55 34.5,138.5C 28.7316,147.452 23.565,156.785 19,166.5C 14.6204,161.657 9.95376,161.323 5,165.5C 2.6045,173.954 5.43783,180.121 13.5,184C 18.291,185.316 21.4577,188.482 23,193.5C 29.386,198.764 35.2194,204.597 40.5,211C 47.1507,215.999 54.1507,216.666 61.5,213C 64.0288,210.358 65.0288,207.192 64.5,203.5C 66.1992,203.34 67.8659,203.506 69.5,204C 75.2793,210.059 82.2793,212.392 90.5,211C 91.9308,210.535 93.0975,209.701 94,208.5C 95.5039,204.961 95.8372,201.295 95,197.5C 92.4373,192.962 89.9373,188.462 87.5,184C 88.5692,180.226 89.2358,176.393 89.5,172.5C 93.2488,172.249 96.9155,171.583 100.5,170.5C 99.5867,174.723 98.4201,178.723 97,182.5C 98.7309,184.617 100.898,186.117 103.5,187C 109.52,188.964 115.52,190.464 121.5,191.5C 121.189,192.478 120.522,193.145 119.5,193.5C 111.822,192.107 104.489,189.607 97.5,186C 95.981,184.649 94.6477,183.149 93.5,181.5C 96.6568,175.595 95.8234,174.595 91,178.5C 90.1251,179.873 89.6251,181.373 89.5,183C 93.0205,189.043 96.0205,195.376 98.5,202C 97.221,209.312 92.8876,213.479 85.5,214.5C 79.0597,212.354 72.7263,210.021 66.5,207.5C 66.415,209.929 65.415,211.929 63.5,213.5C 61.4346,214.857 59.4346,216.19 57.5,217.5C 54.8333,217.5 52.1667,217.5 49.5,217.5C 45.5052,216.265 41.8385,214.265 38.5,211.5C 34.1755,206.343 29.3422,201.676 24,197.5C 21.5,194.333 19,191.167 16.5,188C 9.79705,185.417 4.96372,180.917 2,174.5C 0.632284,168.731 2.46562,164.231 7.5,161C 11.0915,160.211 14.5915,160.378 18,161.5C 22.1983,154.646 26.3649,147.813 30.5,141C 27.4593,135.784 23.4593,131.284 18.5,127.5C 18.1667,124.333 17.8333,121.167 17.5,118C 17.9667,110.432 18.9667,102.932 20.5,95.5C 20.1099,86.4185 20.1099,77.4185 20.5,68.5 Z"/></g>
<g><path style="opacity:1" fill="#212221" d="M 364.5,185.5 C 366.287,187.141 368.454,188.141 371,188.5C 378.723,187.102 382.39,182.436 382,174.5C 386.832,178.221 391.999,181.387 397.5,184C 401.378,184.188 405.044,184.354 408.5,184.5C 405.923,185.972 403.089,186.972 400,187.5C 395.069,184.035 389.736,181.368 384,179.5C 380.418,189.34 373.918,192.174 364.5,188C 362.383,186.269 360.883,184.102 360,181.5C 359.667,175.167 359.333,168.833 359,162.5C 355.642,154.69 353.642,155.357 353,164.5C 346.996,174.835 338.163,178.669 326.5,176C 320.565,171.221 316.898,165.054 315.5,157.5C 310.433,161.786 304.933,165.452 299,168.5C 298.667,178.167 298.333,187.833 298,197.5C 296.423,203.123 292.757,206.457 287,207.5C 279.997,205.995 275.83,201.662 274.5,194.5C 275.459,188.193 276.126,182.193 276.5,176.5C 274.857,173.317 273.357,169.984 272,166.5C 267.967,162.132 263.634,158.132 259,154.5C 255.947,158.055 252.447,161.055 248.5,163.5C 248.062,163.565 247.728,163.399 247.5,163C 252.008,159.658 256.008,155.825 259.5,151.5C 263.518,156.352 268.018,160.685 273,164.5C 273.561,167.29 274.894,169.623 277,171.5C 277.714,178.19 277.548,184.856 276.5,191.5C 276.249,196.889 278.249,201.056 282.5,204C 292.087,205.593 297.087,201.427 297.5,191.5C 296.3,183.496 296.3,175.496 297.5,167.5C 306.298,163.21 313.798,157.21 320,149.5C 317.691,158.967 319.858,167.134 326.5,174C 343.796,176.716 352.629,169.216 353,151.5C 356.427,154.256 359.093,157.59 361,161.5C 361.333,168.5 361.667,175.5 362,182.5C 363.045,183.373 363.878,184.373 364.5,185.5 Z"/></g>
<g><path style="opacity:1" fill="#18cfe1" d="M 294.5,158.5 C 293.042,160.011 291.209,161.011 289,161.5C 288.833,173.181 288.333,184.848 287.5,196.5C 286.914,196.291 286.414,195.957 286,195.5C 286.055,183.843 286.221,172.176 286.5,160.5C 285.5,160.5 284.5,160.5 283.5,160.5C 283.688,162.103 283.188,163.437 282,164.5C 281.115,161.665 279.948,158.999 278.5,156.5C 279.364,155.312 280.364,154.145 281.5,153C 287.671,150.962 292.004,152.796 294.5,158.5 Z"/></g>
<g><path style="opacity:1" fill="#cb437b" d="M 88.5,74.5 C 89.2679,75.2625 89.7679,76.2625 90,77.5C 90.49,76.2068 90.6567,74.8734 90.5,73.5C 91.1515,74.0906 91.8182,74.7573 92.5,75.5C 101.44,73.0462 110.44,72.8795 119.5,75C 122.995,75.9971 125.328,78.1638 126.5,81.5C 125.266,85.4646 122.933,88.6313 119.5,91C 113.456,94.2744 107.29,97.1078 101,99.5C 100.338,104.147 99.1715,108.647 97.5,113C 99.78,118.026 100.113,123.193 98.5,128.5C 97.448,128.351 96.448,128.517 95.5,129C 91.2822,134.447 85.9489,138.447 79.5,141C 83.011,143.505 86.8443,145.339 91,146.5C 94.0225,145.737 96.8559,144.57 99.5,143C 101.81,142.503 104.143,142.337 106.5,142.5C 106.223,139.552 106.556,136.719 107.5,134C 110.751,132.423 113.751,130.423 116.5,128C 118.5,127.667 120.5,127.333 122.5,127C 121.833,126.667 121.167,126.333 120.5,126C 119.967,117.866 123.634,114.866 131.5,117C 131.957,117.414 132.291,117.914 132.5,118.5C 131.742,121.802 131.075,125.135 130.5,128.5C 133.683,132.734 136.683,137.067 139.5,141.5C 138.62,143.429 137.62,145.263 136.5,147C 141.622,154.398 141.622,161.898 136.5,169.5C 134.29,170.766 132.29,172.266 130.5,174C 128.303,179.288 127.303,184.788 127.5,190.5C 125.901,190.232 124.568,190.566 123.5,191.5C 122.833,191.5 122.167,191.5 121.5,191.5C 115.52,190.464 109.52,188.964 103.5,187C 100.898,186.117 98.7309,184.617 97,182.5C 98.4201,178.723 99.5867,174.723 100.5,170.5C 96.9155,171.583 93.2488,172.249 89.5,172.5C 89.2358,176.393 88.5692,180.226 87.5,184C 89.9373,188.462 92.4373,192.962 95,197.5C 95.8372,201.295 95.5039,204.961 94,208.5C 93.0975,209.701 91.9308,210.535 90.5,211C 82.2793,212.392 75.2793,210.059 69.5,204C 67.8659,203.506 66.1992,203.34 64.5,203.5C 65.0288,207.192 64.0288,210.358 61.5,213C 54.1507,216.666 47.1507,215.999 40.5,211C 35.2194,204.597 29.386,198.764 23,193.5C 21.4577,188.482 18.291,185.316 13.5,184C 5.43783,180.121 2.6045,173.954 5,165.5C 9.95376,161.323 14.6204,161.657 19,166.5C 23.565,156.785 28.7316,147.452 34.5,138.5C 29.7158,135.55 25.7158,131.717 22.5,127C 21.552,126.517 20.552,126.351 19.5,126.5C 18.3376,122.02 18.3376,117.687 19.5,113.5C 19.3354,116.518 19.502,119.518 20,122.5C 21.2692,121.095 21.7692,119.429 21.5,117.5C 24.1077,126.948 30.1077,133.448 39.5,137C 51.76,139.858 64.0933,140.191 76.5,138C 85.0267,135.966 91.36,131.132 95.5,123.5C 96.9415,120.264 96.6081,117.264 94.5,114.5C 83.8701,118.519 76.8701,115.019 73.5,104C 71.5273,103.505 69.5273,103.338 67.5,103.5C 67.8316,110.005 65.1649,114.838 59.5,118C 47.323,121.577 40.323,117.077 38.5,104.5C 36.8008,104.66 35.1341,104.494 33.5,104C 32.9781,103.439 32.6448,102.772 32.5,102C 33.6632,100.145 35.3299,98.8112 37.5,98C 55.1892,97.1078 72.8558,95.9411 90.5,94.5C 90.0233,93.5224 89.3567,92.6891 88.5,92C 80.4085,87.9654 72.4085,87.9654 64.5,92C 58.2309,92.797 52.0643,92.297 46,90.5C 40.0528,91.8726 34.2195,93.5392 28.5,95.5C 28.1583,94.6618 27.4916,94.3284 26.5,94.5C 32.4009,91.6962 38.5676,89.3629 45,87.5C 44.934,81.1701 44.934,74.8368 45,68.5C 46.0938,65.3082 47.9272,62.6416 50.5,60.5C 50.8333,60.6667 51.1667,60.8333 51.5,61C 49.3834,62.7309 47.8834,64.8976 47,67.5C 46.4065,73.8556 46.5731,80.1889 47.5,86.5C 60.8772,81.2604 74.5439,77.2604 88.5,74.5 Z"/></g>
<g><path style="opacity:1" fill="#2c181b" d="M 99.5,180.5 C 107.369,184.213 115.702,186.546 124.5,187.5C 118.024,188.31 111.691,187.476 105.5,185C 102.823,184.186 100.823,182.686 99.5,180.5 Z"/></g>
<g><path style="opacity:1" fill="#0d0505" d="M 132.5,150.5 C 135.925,150.757 137.925,152.59 138.5,156C 137.874,160.004 136.708,163.837 135,167.5C 130.606,170.68 127.772,169.513 126.5,164C 127.918,160.999 128.751,157.832 129,154.5C 130.102,153.051 131.269,151.718 132.5,150.5 Z"/></g>
<g><path style="opacity:1" fill="#070303" d="M 109.5,138.5 C 109.833,138.5 110.167,138.5 110.5,138.5C 117.125,140.105 123.791,141.605 130.5,143C 132.573,143.118 133.907,144.118 134.5,146C 131.589,148.715 128.756,151.549 126,154.5C 125.446,157.658 124.946,160.825 124.5,164C 125.205,166.896 126.205,169.729 127.5,172.5C 126.654,176.216 125.654,179.883 124.5,183.5C 116.998,183.97 109.665,182.803 102.5,180C 101.803,176.453 102.303,172.953 104,169.5C 112.764,164.638 116.097,157.305 114,147.5C 112.316,145.649 110.483,143.982 108.5,142.5C 109.246,141.264 109.579,139.93 109.5,138.5 Z"/></g>
<g><path style="opacity:1" fill="#040202" d="M 37.5,139.5 C 41.2293,140.013 44.896,140.846 48.5,142C 57.8544,142.442 67.1877,142.442 76.5,142C 78.6881,144.71 80.3548,147.71 81.5,151C 76.061,151.467 70.7276,151.134 65.5,150C 72.6797,154.502 80.3463,155.502 88.5,153C 92.5,150.333 96.5,147.667 100.5,145C 111.379,144.221 114.879,149.054 111,159.5C 109.093,163.039 106.26,165.539 102.5,167C 87.4678,171.198 72.4678,171.531 57.5,168C 61.0716,170.637 65.0716,172.303 69.5,173C 75.1569,173.499 80.8236,173.666 86.5,173.5C 84.9274,179.708 83.094,185.708 81,191.5C 83.1693,187.185 85.5027,186.852 88,190.5C 89.6667,193.167 91.3333,195.833 93,198.5C 94.0512,207.111 90.2178,210.611 81.5,209C 78.2167,207.439 75.3834,205.273 73,202.5C 72.51,201.207 72.3433,199.873 72.5,198.5C 69.7623,198.851 67.0956,199.518 64.5,200.5C 63.2803,194.954 61.447,189.621 59,184.5C 55.7969,180.312 51.6303,178.479 46.5,179C 53.2282,180.727 57.7282,184.894 60,191.5C 60.5822,195.824 61.0822,200.157 61.5,204.5C 61.712,207.011 61.0454,209.178 59.5,211C 53.4384,213.428 47.7717,212.761 42.5,209C 37.3333,202.5 31.5,196.667 25,191.5C 22.9728,188.779 21.4728,185.779 20.5,182.5C 10.7941,181.969 6.29406,176.969 7,167.5C 9.15293,165.556 11.6529,165.056 14.5,166C 16.6213,168.198 18.288,170.698 19.5,173.5C 23.9456,161.272 29.9456,149.939 37.5,139.5 Z"/></g>
<g><path style="opacity:1" fill="#1a0b0f" d="M 82.5,146.5 C 84.6365,147.787 86.9699,148.621 89.5,149C 87.8421,150.663 85.8421,151.496 83.5,151.5C 83.3713,149.784 83.038,148.117 82.5,146.5 Z"/></g>
<g><path style="opacity:1" fill="#452129" d="M 110.5,138.5 C 110.167,138.5 109.833,138.5 109.5,138.5C 109.5,137.5 109.5,136.5 109.5,135.5C 118.973,137.035 128.306,139.201 137.5,142C 129.352,140.759 121.186,139.259 113,137.5C 111.93,137.528 111.097,137.861 110.5,138.5 Z"/></g>
<g><path style="opacity:1" fill="#170d0d" d="M 116.5,130.5 C 120.936,130.21 125.27,130.71 129.5,132C 131.607,133.264 132.607,135.097 132.5,137.5C 126.242,137.315 120.242,135.982 114.5,133.5C 115.193,132.482 115.859,131.482 116.5,130.5 Z"/></g>
<g><path style="opacity:1" fill="#b93c70" d="M 73.5,113.5 C 75.6807,113.284 77.3474,114.117 78.5,116C 76.74,118.029 75.5733,120.196 75,122.5C 77.6667,126.5 80.3333,126.5 83,122.5C 81.4401,128.231 78.4401,128.898 74,124.5C 71.301,127.042 68.301,127.709 65,126.5C 64.3123,125.668 64.479,125.002 65.5,124.5C 69.1486,126.251 71.8152,125.251 73.5,121.5C 71.2663,119.619 69.933,117.285 69.5,114.5C 71.099,114.768 72.4324,114.434 73.5,113.5 Z"/></g>
<g><path style="opacity:1" fill="#110708" d="M 51.5,98.5 C 66.8333,98.5 82.1667,98.5 97.5,98.5C 97.732,102.457 96.8987,106.124 95,109.5C 93.6422,106.619 92.1422,103.786 90.5,101C 88.1667,100.333 85.8333,100.333 83.5,101C 85.1667,104 86.8333,107 88.5,110C 90.5,110.333 92.5,110.667 94.5,111C 84.2191,116.36 77.8858,113.36 75.5,102C 72.4459,101.179 69.4459,101.345 66.5,102.5C 65.4314,105.539 64.2647,108.539 63,111.5C 61.0404,108.415 59.2071,105.248 57.5,102C 54.5,101.333 51.5,101.333 48.5,102C 51.0971,107.195 54.4305,111.862 58.5,116C 47.403,119.044 41.5697,114.877 41,103.5C 39.9783,102.646 39.1449,101.646 38.5,100.5C 42.9822,99.8331 47.3155,99.1664 51.5,98.5 Z"/></g>
<g><path style="opacity:1" fill="#120709" d="M 78.5,78.5 C 80.8568,78.3367 83.1902,78.5034 85.5,79C 78.5545,81.8061 71.8878,85.1394 65.5,89C 60.1935,90.8399 54.8602,90.8399 49.5,89C 59.0024,84.7794 68.6691,81.2794 78.5,78.5 Z"/></g>
<g><path style="opacity:1" fill="#080303" d="M 104.5,75.5 C 110.563,74.8377 116.23,76.0044 121.5,79C 123.978,80.938 124.145,83.1047 122,85.5C 113.645,92.1183 104.145,95.4516 93.5,95.5C 93.607,93.0968 92.607,91.2635 90.5,90C 85.9892,88.1635 81.3225,86.8302 76.5,86C 85.4668,81.1823 94.8002,77.6823 104.5,75.5 Z"/></g>
<g><path style="opacity:1" fill="#222322" d="M 668.5,69.5 C 679.662,72.2336 687.995,78.5669 693.5,88.5C 693.5,94.5 693.5,100.5 693.5,106.5C 692.121,109.386 690.121,111.886 687.5,114C 689.364,116.688 691.364,119.188 693.5,121.5C 693.5,128.167 693.5,134.833 693.5,141.5C 690.736,145.433 687.403,148.933 683.5,152C 676,156.918 668.333,161.584 660.5,166C 658.308,169.692 655.308,172.526 651.5,174.5C 650.167,182.167 650.167,189.833 651.5,197.5C 651.414,205.921 647.414,211.588 639.5,214.5C 634.12,213.601 629.953,210.934 627,206.5C 626.685,203.628 626.185,200.795 625.5,198C 626.799,191.624 626.799,185.29 625.5,179C 614.723,181.772 603.723,183.772 592.5,185C 585.181,192.457 578.014,192.29 571,184.5C 569.977,178.207 569.311,171.874 569,165.5C 566.957,163.792 565.29,161.792 564,159.5C 560.328,163.809 557.995,168.809 557,174.5C 555.292,176.543 553.292,178.21 551,179.5C 548.276,185.005 545.943,190.672 544,196.5C 543.097,197.701 541.931,198.535 540.5,199C 530.876,201.86 524.876,198.527 522.5,189C 524.987,180.6 525.654,172.1 524.5,163.5C 524.389,162.883 524.056,162.383 523.5,162C 524.893,160.829 525.727,159.329 526,157.5C 527.576,149.455 529.243,141.455 531,133.5C 529.832,148.848 528.165,164.181 526,179.5C 525.333,183.833 525.333,188.167 526,192.5C 527.167,195 529,196.833 531.5,198C 538.206,199.434 542.706,196.934 545,190.5C 546.114,186.067 547.281,181.734 548.5,177.5C 551.099,177.451 553.266,176.451 555,174.5C 557.616,167.655 559.616,160.655 561,153.5C 562.769,155.617 564.602,157.617 566.5,159.5C 568.168,161.34 569.668,163.34 571,165.5C 571.333,171.167 571.667,176.833 572,182.5C 573.167,185 575,186.833 577.5,188C 584.437,190.22 589.27,188.053 592,181.5C 595.073,182.617 598.24,182.784 601.5,182C 610.252,180.145 618.919,177.979 627.5,175.5C 628.399,184.832 628.566,194.165 628,203.5C 629.077,206.913 631.244,209.413 634.5,211C 644.125,212.55 649.125,208.383 649.5,198.5C 647.34,189.894 647.007,181.227 648.5,172.5C 652.737,172.103 655.737,169.936 657.5,166C 668.954,160.193 679.454,153.026 689,144.5C 694.849,133.523 693.349,123.69 684.5,115C 692.058,107.936 694.225,99.4364 691,89.5C 685.821,80.1377 677.987,73.971 667.5,71C 666.288,69.8932 666.621,69.3932 668.5,69.5 Z"/></g>
<g><path style="opacity:1" fill="#f3dd1f" d="M 577.5,143.5 C 582.328,143.385 583.661,145.552 581.5,150C 576.57,150.427 575.237,148.26 577.5,143.5 Z"/></g>
<g><path style="opacity:1" fill="#f3e71e" d="M 599.5,140.5 C 599.833,140.5 600.167,140.5 600.5,140.5C 602.975,141.131 605.309,142.131 607.5,143.5C 604.833,149.5 600.5,153.833 594.5,156.5C 593.685,154.698 592.185,153.698 590,153.5C 588.037,154.625 586.204,155.959 584.5,157.5C 583.914,157.291 583.414,156.957 583,156.5C 582.333,154.5 582.333,152.5 583,150.5C 585.746,148.545 588.58,146.878 591.5,145.5C 593.404,145.262 594.738,144.262 595.5,142.5C 596.605,141.4 597.938,140.733 599.5,140.5 Z"/></g>
<g><path style="opacity:1" fill="#f2e11e" d="M 636.5,139.5 C 638.167,139.5 639.833,139.5 641.5,139.5C 641.338,141.527 641.505,143.527 642,145.5C 642.232,144.263 642.732,143.263 643.5,142.5C 646.598,142.244 649.598,141.578 652.5,140.5C 655.521,143.021 657.521,146.188 658.5,150C 657.821,154.5 655.821,155.333 652.5,152.5C 650.914,154.173 650.247,156.173 650.5,158.5C 650.5,160.5 650.5,162.5 650.5,164.5C 649.5,164.5 648.5,164.5 647.5,164.5C 647.762,163.022 647.429,161.689 646.5,160.5C 643.427,162.093 641.26,164.426 640,167.5C 639.364,177.011 639.531,186.511 640.5,196C 640.333,198.167 640.167,200.333 640,202.5C 639,203.833 638,203.833 637,202.5C 636.5,190.171 636.333,177.838 636.5,165.5C 635.041,165.567 633.708,165.234 632.5,164.5C 632.739,158.254 632.906,151.921 633,145.5C 633.941,143.273 635.108,141.273 636.5,139.5 Z"/></g>
<g><path style="opacity:1" fill="#55aada" d="M 592.5,139.5 C 594.5,139.5 595.5,140.5 595.5,142.5C 594.738,144.262 593.404,145.262 591.5,145.5C 590.449,144.778 589.782,143.778 589.5,142.5C 590.167,141.167 591.167,140.167 592.5,139.5 Z"/></g>
<g><path style="opacity:1" fill="#f1b259" d="M 641.5,139.5 C 639.833,139.5 638.167,139.5 636.5,139.5C 635.15,138.176 635.317,137.176 637,136.5C 638.577,137.551 640.077,138.551 641.5,139.5 Z"/></g>
<g><path style="opacity:1" fill="#e25592" d="M 595.5,134.5 C 597.252,136.246 598.585,138.246 599.5,140.5C 597.938,140.733 596.605,141.4 595.5,142.5C 595.5,140.5 594.5,139.5 592.5,139.5C 593.11,137.566 594.11,135.899 595.5,134.5 Z"/></g>
</svg>
